<?xml version="1.0" encoding="utf-8"?>
<!-- Generator: Adobe Illustrator 24.1.2, SVG Export Plug-In . SVG Version: 6.00 Build 0)  -->
<svg version="1.1" id="Capa_1" xmlns="http://www.w3.org/2000/svg" xmlns:xlink="http://www.w3.org/1999/xlink" x="0px" y="0px"
	 viewBox="0 0 177 50" style="enable-background:new 0 0 177 50;" xml:space="preserve">
<g>
	<g>
		<path d="M53.7,5h9.1c5.2,0,7.9,2.9,7.9,8.6v11.6c0,2.7-1.1,4.6-3.2,5.7c2.2,1.1,3.2,3,3.2,5.7v0.7c0,5.7-2.7,8.6-8.2,8.6h-8.7V5z
			 M59.6,10.8V28h1.9c0.8,0,1.4-0.1,1.7-0.2c1.1-0.4,1.6-1.3,1.6-2.6V13.6c0-1.9-0.9-2.8-2.6-2.8H59.6z M59.6,33.8v6.2h2.6
			c1.7,0,2.6-0.9,2.6-2.8v-0.7c0-1.3-0.5-2.2-1.6-2.6c-0.3-0.1-0.9-0.2-1.7-0.2H59.6z"/>
		<path d="M75.4,5h15.3v5.8h-9.4V28h8.1v5.8h-8.1v6.3h9.4v5.8H75.4V5z"/>
		<path d="M95.1,45.9V5h5.9v35.1h9.4v5.8H95.1z"/>
		<path d="M130.6,38c0,5.7-2.8,8.6-8.5,8.6c-5.6,0-8.5-2.9-8.5-8.6V5h5.9V38c0,1.8,0.9,2.8,2.6,2.8c1.7,0,2.6-0.9,2.6-2.8V5h5.9V38z
			"/>
		<path d="M144.1,14.4l-4.2,31.5H134L140,5h8.1l6.1,40.9h-6L144.1,14.4z"/>
		<path d="M157.7,5h8.6c5.2,0,7.9,2.9,7.9,8.6v11.6c0,3.6-1.5,6-4.6,7.1l6.6,13.6h-6.5l-5.3-12.5l-0.7,0.1v12.4h-5.9V5z M163.6,10.8
			V28h1.4c0.8,0,1.4-0.1,1.7-0.2c1.1-0.4,1.6-1.3,1.6-2.6V13.6c0-1.9-0.9-2.8-2.6-2.8H163.6z"/>
	</g>
	<g>
		<path d="M47.7,7.6c0-0.1,0-0.2-0.1-0.3c0-0.1-0.1-0.2-0.2-0.3c0,0,0,0,0,0c0,0,0,0-0.1,0c0,0-0.1,0-0.1,0c-0.1,0-0.1,0-0.2,0
			c-0.1,0-0.2,0-0.3,0.1c-0.2,0.1-0.4,0.1-0.5,0.2c0.1-0.1,0.2-0.2,0.2-0.3l0.3-0.4c0.2-0.3,0.4-0.5,0.6-0.8l0,0
			c0.1-0.3,0.2-0.6,0.1-0.9c0-0.1,0-0.1-0.1-0.2c0,0,0-0.1,0-0.1c0,0,0,0,0,0c0,0,0,0,0,0c0-0.1,0-0.3,0-0.5c0,0,0,0,0-0.1l0-0.1
			c0,0,0-0.1-0.1-0.1c0,0-0.1-0.1-0.1-0.1c0,0,0,0-0.1,0c0,0,0,0-0.1,0c0,0-0.1,0-0.1-0.1l-0.1,0l-0.1,0c0,0,0,0-0.1,0l-0.1,0
			c0,0-0.1,0-0.1,0c-0.2,0-0.3,0.1-0.4,0.1c-0.1,0-0.1,0.1-0.2,0.1c-0.1,0-0.1,0.1-0.2,0.1c-0.3,0.1-0.6,0.2-0.9,0.4
			c-0.1,0.1-0.3,0.2-0.4,0.3c-0.1,0.1-0.3,0.2-0.4,0.3c-0.1,0.1-0.3,0.2-0.4,0.3c-0.1,0.1-0.3,0.2-0.4,0.3c-0.1,0-0.1,0.1-0.2,0.1
			c-0.1,0-0.1,0-0.2,0c-0.1,0-0.3-0.1-0.4-0.1c-0.1-0.1-0.3-0.1-0.4-0.2c0,0-0.1,0-0.1,0l0,0l0,0l0,0l0,0l0,0c-0.1,0-0.2,0-0.3,0.1
			c-0.2,0.1-0.3,0.1-0.4,0.2c-0.1,0.1-0.3,0.1-0.4,0.1c0,0-0.1,0-0.1,0c0,0-0.1,0-0.1,0c-0.1,0-0.2,0.1-0.2,0.1
			c-0.1,0.1-0.3,0.2-0.4,0.2c-0.3,0.2-0.5,0.3-0.8,0.5c-0.2,0.1-0.5,0.3-0.7,0.4c-0.2,0.1-0.4,0.1-0.5,0.1c-0.2,0-0.4,0-0.6-0.1
			c-0.2,0-0.3-0.1-0.5-0.1c-0.1,0-0.3-0.1-0.5-0.1c-0.2,0-0.3-0.1-0.4-0.2c-0.1-0.1-0.1,0-0.2,0.1c0,0.1,0,0.4,0.1,0.7
			c0.1,0.3,0.2,0.5,0.2,0.5l0,0c-0.1,0-0.2,0.1-0.3,0.1C35.3,8,35.2,8,35,8.1c0,0,0,0-0.1,0c-0.1,0-0.2-0.1-0.2-0.1
			c-0.2-0.1-0.3-0.1-0.5-0.2c-0.2-0.1-0.3-0.2-0.4-0.2c-0.1-0.1-0.3-0.2-0.4-0.3L33.2,7l0.1,0.4c0.1,0.3,0.2,0.6,0.3,0.9
			c0,0.1,0.1,0.3,0.1,0.4c0,0.2,0.1,0.3,0.1,0.5c0.1,0.3,0.2,0.6,0.4,0.8c0.2,0.3,0.4,0.5,0.7,0.7c0.1,0.1,0.2,0.2,0.4,0.3
			c0.1,0.1,0.3,0.2,0.4,0.2c0.1,0.1,0.2,0.1,0.3,0.1c0,0-0.1,0-0.1,0c-0.2,0.1-0.3,0.2-0.4,0.4c-0.1,0.2-0.1,0.5-0.2,0.7
			c-0.2,0.6-0.6,1.1-1.3,1.2c-0.3,0-0.5,0.1-0.8,0.2c-0.3,0.1-0.5,0.2-0.2,0.6c0.2,0.3,0.1,0.4-0.2,0.4c-0.3,0-0.5,0-0.8,0
			c-0.1,0.1-0.3,0-0.4,0c0,0,0,0-0.1,0c0,0.1,0,0.1,0.1,0.2c0.3,0.2,0.7,0.5,0,0.7c-0.1,0-0.1,0.1-0.1,0.2c0,0.4-0.3,0.4-0.6,0.3
			c-0.2-0.1-0.4-0.1-0.3,0.3c0.1,0.3-0.2,0.5-0.4,0.6c-0.8,0.3-1.6,0.7-2.4,0.9c0.1-0.1,0.3-0.2,0.4-0.3c-0.2,0.1-0.5,0.2-0.7,0.4
			l0.1,0.1c0,0,0,0,0,0c-2.6,1.9-5.6,2.7-8.8,3.3c0,0,0,0.1,0,0.1c0.5,0,1-0.1,1.4-0.1c0,0,0,0,0,0.1c-0.9,0.3-1.7,0.6-2.6,0.9
			c-0.9,0.3-1.7,0.7-2.5,1.1c0,0,0,0.1,0.1,0.1c0.4-0.2,0.9-0.3,1.3-0.5c-1.4,1-2.9,0.9-4.5,0.4c0.1,0.2,0.3,0.3,0.4,0.5
			c-0.7,0.1-1.1-0.5-1.7-0.9v0.5c-0.5-0.4-0.9-0.8-1.3-1.2c0,0-0.1,0.1-0.1,0.1c0,0.2,0.1,0.3,0.1,0.6c-0.1-0.2-0.2-0.3-0.3-0.4
			c-0.6-0.9-1.1-1.7-1.6-2.6c-0.3-0.5-0.5-1-0.9-1.5c-0.5-0.6-1.1-1-1.9-1.1c-1-0.1-2,0-3.1,0.5c0.4,0.1,0.7,0.2,1.1,0.3
			c-0.9,0.2-1.7,0.5-2,1.5c0.3-0.1,0.5-0.1,0.7-0.1v0.3c0.4-0.1,0.8-0.1,1.2-0.2c-0.1,0.2-0.2,0.3-0.4,0.6c0.2,0,0.4,0.1,0.5,0.1
			c0.4-0.1,0.6,0.1,0.6,0.5c0,0.2,0.1,0.4,0.1,0.6c0,1.1,0.3,2.1,0.7,3.2c0.1,0.3,0.5,0.6,0.8,1c-0.3-0.2-0.6-0.4-0.9-0.5
			C4.4,25.4,5,25.6,5.4,26C5.2,26,5,25.9,4.8,25.8c0,0.5,0.4,0.6,0.7,0.9C5,26.8,4.6,26.9,4.2,27c0,0,0,0.1,0,0.1
			c0.9,0.1,1.8,0.2,2.7,0.3c0,0,0,0.1,0,0.1c-0.6,0-1.2-0.1-1.8-0.1c0,0.1,0,0.1,0,0.2c0.6,0.1,1.3,0.3,2,0.4
			c-0.3,0.1-0.5,0.3-0.8,0.4h3c0,0,0,0.1,0,0.1H7.5c0,0,0,0.1,0,0.1c1,0.4,2,0.4,3,0.3c0,0,0,0.1,0,0.1c-0.7,0.1-1.4,0.3-2.2,0.4
			c1.4,0.2,2.7,0.2,4.1-0.4c-0.3,1.7-0.7,3.3-1,4.9c0,0,0.1-0.1,0.2-0.2c0.1-0.1,0.2-0.2,0.2-0.3c0,0,0.1,0,0.1,0.1
			c-0.3,0.6-0.6,1.1-1,1.8c0.2-0.1,0.3-0.2,0.4-0.3c-0.2,0.5-0.3,1-0.4,1.5c0,0.1-0.1,0.2-0.1,0.4c0.1,0.6,0,1.2-0.5,1.7
			c-0.5,0.5-1.1,1-1.7,1.4c-0.4,0.3-0.6,0.7-0.7,1.2c-0.1,1.3-0.4,2.5-0.6,3.8c-0.2,1.4,0.2,1.8,1.5,1.6c0.3,0,0.5-0.1,0.8-0.1
			c0.5-0.1,0.6-0.4,0.3-0.8c-1.1-2-0.2-4.3,1.4-4.9c0.4-0.2,0.8-0.4,1.3-0.7c-0.2,0.4-0.3,0.7-0.5,1c0,0,0.1,0.1,0.1,0.1
			c0.4-0.5,0.8-1,1.1-1.4c0,0,0,0,0.1,0c-0.1,0.1-0.1,0.2-0.2,0.3c1.5-1.3,2.5-3,3.5-4.6c-0.1,1-0.2,1.9-0.4,2.9
			c0,0.2-0.2,0.5-0.3,0.6c-0.3,0.3-0.7,0.6-1.1,1c-0.6,0.5-0.7,1.1-0.5,1.9c0.2,1,0.3,2,0.4,3c0.1,0.5,0.2,1,0.7,1.2
			c0.6,0.3,1.2,0.3,1.7,0c0.3-0.2,0.4-0.4,0.2-0.8c-0.1-0.2-0.2-0.3-0.3-0.5c-0.6-0.6-0.8-1.4-0.8-2.3c0-0.1,0.1-0.2,0.2-0.3
			c0.2-0.3,0.5-0.5,0.7-0.8c0,0.1,0,0.2,0,0.3l0,0.1l0,0.3l0.2-0.3c0.2-0.2,0.3-0.4,0.4-0.5c0.1,0,0.3,0.1,0.4,0
			c0.5-0.4,1-0.9,1.5-1.4c-0.2,0.5-0.4,0.8-0.5,1.2c0.6-0.4,0.9-0.9,1.2-1.6c0,0.2,0.1,0.4,0.1,0.6c0.6-0.5,0.7-1.2,1-1.8
			c0,0.2,0,0.4,0.1,0.5c0,0,0.1,0,0.1,0c0.2-1,0.4-2,0.6-3c0,0,0,0,0.1,0v0.9c0.4-1.2,0.6-2.4,0.4-3.7c0.8,0.2,1.5,0.3,2.3,0.5
			c0.2,0,0.4,0.1,0.5,0.1c-0.1-0.2-0.2-0.4-0.3-0.6c0,0,0,0,0,0c0.7,0.2,1.5,0.4,2.3,0.5l-0.1-0.2c0,0,2.5,0.3,3.6-0.3
			c0.2-0.1,0.6-0.4,1.2-0.7c0.1,0.1,0.1,0.3,0.1,0.5c0.1,1.4,0.3,2.8,0.4,4.2c0.1,0.5,0,1.1,0.2,1.6c0.3,0.6,0,1.2,0,1.7
			c0,1.6,0.1,3.2,0.1,4.7c0,0.7,0.1,0.8,0.8,0.7c0.5,0,1.1,0,1.6-0.1c0.5-0.1,0.7-0.4,0.3-0.8c-0.1-0.2-0.4-0.3-0.5-0.5
			c-0.2-0.5-0.5-1-0.5-1.5c0-1.3,0.2-2.7,0.3-4c0,0,0.1,0,0.1,0c0,0.1,0.1,0.2,0.1,0.3c0.4-1.4,0.8-2.6,1.1-3.9c0,0,0,0.1,0,0.1
			c0,0,0.1,0,0.1,0c0-0.3,0-0.6,0.1-0.8c0,0,0.1,0,0.1,0c0-0.8,0-1.6,0.6-2.1c0.3,1.8,0.5,3.5,0.8,5.3c0,0,0,0,0.1,0
			c0-0.1,0-0.2,0.1-0.3c0.2,0.9,0.4,1.7,0.7,2.5c0,0,0.1,0,0.1,0c0-0.1,0-0.3,0-0.4c0,0,0,0,0.1,0c0.1,0.6,0.3,1.3,0.4,1.9
			c0.2,1,0.6,1.9,1.2,2.8c0.1,0.2,0.1,0.4,0.3,0.5c0.2,0.2,0.5,0.5,0.7,0.5c1,0.1,2,0.1,3,0.1c0.1,0,0.3-0.1,0.4-0.1
			c-0.2-0.8-0.8-1.1-1.3-1.2c-0.9-0.2-1.4-0.8-1.7-1.5c-0.5-1-0.7-2.1-0.7-3.3c0.1-2.8,0.1-5.5,0.1-8.3c0-0.4,0.1-0.7,0.2-1.1
			c0,0,0.1-2.3,0.2-2.7c0-0.2,0.1-0.3,0.1-0.5c0-0.2,0.1-0.4,0.2-0.4c0.7-0.4,0.4-1,0.5-1.6c0-0.1,0-0.2,0-0.3c0-0.1,0-0.4,0.1-0.4
			c0.2-0.1,0.2,0.2,0.4,0.2c0.1-0.2,0-0.5,0.2-0.7c0-0.4,0.1-0.7,0.1-1.1c0-0.4,0.2-0.4,0.5-0.2c0,0,0.1,0,0.1,0
			c0-1.4-0.3-2.7-0.4-4c0-0.6-0.1-1.2,0-1.7c0-0.3,0-0.6,0.4-0.7c0-0.2-0.1-0.4-0.1-0.6c0,0,0,0,0,0l0-0.1l0,0c0,0,0,0,0,0l0-0.1
			c0-0.1,0.1-0.1,0.2-0.2c0,0,0,0,0,0c0.1,0.1,0.2,0.2,0.4,0.2c0.1,0.1,0.3,0.1,0.4,0.2c0.1,0.1,0.3,0.1,0.4,0.1l0.1,0l0-0.1
			c-0.1-0.2-0.2-0.4-0.3-0.6c-0.1-0.2-0.1-0.4-0.2-0.6c0-0.1,0-0.2-0.1-0.3l0-0.3c0-0.2-0.1-0.4-0.1-0.7c0-0.1,0-0.1,0-0.2
			c0-0.1,0-0.1,0-0.2c0-0.1,0-0.2,0-0.3c0.1-0.2,0.1-0.4,0.2-0.6c0.1-0.2,0.1-0.4,0.2-0.6c0-0.1,0.1-0.2,0.1-0.3c0,0,0,0,0-0.1
			l0-0.1c0,0,0.1-0.1,0.1-0.1c0.1-0.1,0.1-0.2,0.2-0.3c0,0,0.1-0.1,0.1-0.1L46,9.7c0,0,0,0,0.1-0.1c0.1-0.1,0.2-0.1,0.3-0.2
			c0.1-0.1,0.2-0.1,0.3-0.2c0.1-0.1,0.2-0.1,0.3-0.2C46.9,9,47,8.9,47.1,8.8c0.2-0.2,0.3-0.4,0.4-0.5l0-0.1l0,0l0,0l0-0.1
			c0,0,0-0.1,0-0.1C47.7,7.9,47.7,7.7,47.7,7.6z"/>
		<path d="M27.6,17.8C27.6,17.8,27.6,17.8,27.6,17.8C27.6,17.9,27.6,17.9,27.6,17.8L27.6,17.8C27.6,17.8,27.6,17.8,27.6,17.8z"/>
	</g>
</g>
</svg>
